<mxfile host="app.diagrams.net" modified="2023-05-25T19:24:42.769Z" agent="Mozilla/5.0 (Macintosh; Intel Mac OS X 10_15_7) AppleWebKit/605.1.15 (KHTML, like Gecko) Version/16.3 Safari/605.1.15" etag="b-gLU9woacUmakVMSHR6" version="21.3.4" type="google">
  <diagram name="Página-1" id="AUhr5aorRhPXAYEei1Cy">
    <mxGraphModel grid="1" page="1" gridSize="10" guides="1" tooltips="1" connect="1" arrows="1" fold="1" pageScale="1" pageWidth="827" pageHeight="1169" math="0" shadow="0">
      <root>
        <mxCell id="0" />
        <mxCell id="1" parent="0" />
        <mxCell id="5f0yoZUZ6OptZOEbJsyg-1" value="" style="edgeStyle=orthogonalEdgeStyle;rounded=0;orthogonalLoop=1;jettySize=auto;html=1;strokeWidth=3;fontStyle=1" edge="1" parent="1" source="5f0yoZUZ6OptZOEbJsyg-2" target="5f0yoZUZ6OptZOEbJsyg-4">
          <mxGeometry relative="1" as="geometry" />
        </mxCell>
        <mxCell id="5f0yoZUZ6OptZOEbJsyg-2" value="Inicio" style="ellipse;whiteSpace=wrap;html=1;aspect=fixed;strokeWidth=3;fontStyle=1;fillColor=#b1ddf0;strokeColor=#10739e;" vertex="1" parent="1">
          <mxGeometry x="374" y="10" width="80" height="80" as="geometry" />
        </mxCell>
        <mxCell id="5f0yoZUZ6OptZOEbJsyg-3" value="" style="edgeStyle=orthogonalEdgeStyle;rounded=0;orthogonalLoop=1;jettySize=auto;html=1;strokeWidth=3;fontStyle=1" edge="1" parent="1" source="5f0yoZUZ6OptZOEbJsyg-4" target="5f0yoZUZ6OptZOEbJsyg-7">
          <mxGeometry relative="1" as="geometry" />
        </mxCell>
        <mxCell id="5f0yoZUZ6OptZOEbJsyg-4" value="numero" style="shape=parallelogram;perimeter=parallelogramPerimeter;whiteSpace=wrap;html=1;fixedSize=1;strokeWidth=3;fontStyle=1;fillColor=#b0e3e6;strokeColor=#0e8088;" vertex="1" parent="1">
          <mxGeometry x="354" y="180" width="120" height="60" as="geometry" />
        </mxCell>
        <mxCell id="5f0yoZUZ6OptZOEbJsyg-5" value="" style="edgeStyle=orthogonalEdgeStyle;rounded=0;orthogonalLoop=1;jettySize=auto;html=1;strokeWidth=3;fontStyle=1" edge="1" parent="1" source="5f0yoZUZ6OptZOEbJsyg-7" target="5f0yoZUZ6OptZOEbJsyg-9">
          <mxGeometry relative="1" as="geometry">
            <Array as="points">
              <mxPoint x="250" y="365" />
            </Array>
          </mxGeometry>
        </mxCell>
        <mxCell id="5f0yoZUZ6OptZOEbJsyg-6" value="" style="edgeStyle=orthogonalEdgeStyle;rounded=0;orthogonalLoop=1;jettySize=auto;html=1;strokeWidth=3;fontStyle=1" edge="1" parent="1" source="5f0yoZUZ6OptZOEbJsyg-7" target="5f0yoZUZ6OptZOEbJsyg-11">
          <mxGeometry relative="1" as="geometry">
            <Array as="points">
              <mxPoint x="570" y="370" />
            </Array>
          </mxGeometry>
        </mxCell>
        <mxCell id="5f0yoZUZ6OptZOEbJsyg-7" value="numero&amp;gt;=100 e numero&amp;lt;=200" style="rhombus;whiteSpace=wrap;html=1;strokeWidth=3;fontStyle=1;fillColor=#d0cee2;strokeColor=#56517e;" vertex="1" parent="1">
          <mxGeometry x="318" y="300" width="192" height="130" as="geometry" />
        </mxCell>
        <mxCell id="5f0yoZUZ6OptZOEbJsyg-8" value="" style="edgeStyle=orthogonalEdgeStyle;rounded=0;orthogonalLoop=1;jettySize=auto;html=1;strokeWidth=3;fontStyle=1" edge="1" parent="1" source="5f0yoZUZ6OptZOEbJsyg-9" target="5f0yoZUZ6OptZOEbJsyg-12">
          <mxGeometry relative="1" as="geometry">
            <Array as="points">
              <mxPoint x="400" y="530" />
            </Array>
          </mxGeometry>
        </mxCell>
        <mxCell id="5f0yoZUZ6OptZOEbJsyg-9" value="&quot;O numero esta entre 100 e 200&quot;" style="shape=document;whiteSpace=wrap;html=1;boundedLbl=1;strokeWidth=3;fontStyle=1;fillColor=#bac8d3;strokeColor=#23445d;" vertex="1" parent="1">
          <mxGeometry x="190" y="504" width="120" height="80" as="geometry" />
        </mxCell>
        <mxCell id="5f0yoZUZ6OptZOEbJsyg-10" value="" style="edgeStyle=orthogonalEdgeStyle;rounded=0;orthogonalLoop=1;jettySize=auto;html=1;strokeWidth=3;fontStyle=1" edge="1" parent="1" source="5f0yoZUZ6OptZOEbJsyg-11" target="5f0yoZUZ6OptZOEbJsyg-12">
          <mxGeometry relative="1" as="geometry">
            <Array as="points">
              <mxPoint x="430" y="530" />
            </Array>
          </mxGeometry>
        </mxCell>
        <mxCell id="5f0yoZUZ6OptZOEbJsyg-11" value="&quot;O numero não esta entre 100 e 200&quot;" style="shape=document;whiteSpace=wrap;html=1;boundedLbl=1;strokeWidth=3;fontStyle=1;fillColor=#bac8d3;strokeColor=#23445d;" vertex="1" parent="1">
          <mxGeometry x="510" y="500" width="120" height="80" as="geometry" />
        </mxCell>
        <mxCell id="5f0yoZUZ6OptZOEbJsyg-12" value="Fim" style="ellipse;whiteSpace=wrap;html=1;strokeWidth=3;fontStyle=1;fillColor=#b1ddf0;strokeColor=#10739e;" vertex="1" parent="1">
          <mxGeometry x="354" y="600" width="120" height="80" as="geometry" />
        </mxCell>
      </root>
    </mxGraphModel>
  </diagram>
</mxfile>
